# xmcd CD database file
#
# Track frame offsets:
#	150
#	21215
#	42912
#	48758
#	67229
#	89710
#	117469
#	140248
#	161601
#	181994
#
# Disc length: 2828 seconds
#
# Revision: 0
# Processed by: cddbd v1.5.2PL0 Copyright (c) Steve Scherf et al.
# Submitted via: CDex 1.51
#
DISCID=930b0a0a
DTITLE=Herbie Hancock - Dis Is Da Drum
DYEAR=1994
DGENRE=Jazz
TTITLE0=Call It '95
TTITLE1=Dis Is Da Drum
TTITLE2=Shooz
TTITLE3=Melody (On The Deuce By 44)
TTITLE4=Mojuba
TTITLE5=Butterfly
TTITLE6=Ju Ju
TTITLE7=Hump
TTITLE8=Come And See Me
TTITLE9=Rubber Soul
EXTD=YEAR: 1994
EXTT0=
EXTT1=
EXTT2=
EXTT3=
EXTT4=
EXTT5=
EXTT6=
EXTT7=
EXTT8=
EXTT9=
PLAYORDER=
